# xmcd
#
# Track frame offsets: 
#        150
#        18490
#        38080
#        57235
#        70970
#        88322
#        115947
#        135437
#        152062
#        168275
#        186345
#
# Disc length: 2716 seconds
#
# Revision: 0
# Processed by: cddbd v1.5.2PL0 Copyright (c) Steve Scherf et al.
# Submitted via: ExactAudioCopy v0.95b3
#
DISCID=920a9a0b
DTITLE=Mark Bates - Down The Narrow
DYEAR=2009
DGENRE=Country
TTITLE0=Clean Through
TTITLE1=The Promised Land
TTITLE2=A Drunkard's Holiday
TTITLE3=Forbidden Love
TTITLE4=Daisy
TTITLE5=Shotgun with the Devil
TTITLE6=Flyin' Shoes ( By Townes Van Zandt)
TTITLE7=The Show is Over
TTITLE8=My Way Back Home
TTITLE9=Go On
TTITLE10=Death Sucks
EXTD=
EXTT0=
EXTT1=
EXTT2=
EXTT3=
EXTT4=
EXTT5=
EXTT6=
EXTT7=
EXTT8=
EXTT9=
EXTT10=
PLAYORDER=
